<?xml version="1.0" standalone="no"?>
<!DOCTYPE svg PUBLIC "-//W3C//DTD SVG 20010904//EN"
 "http://www.w3.org/TR/2001/REC-SVG-20010904/DTD/svg10.dtd">
<svg version="1.0" xmlns="http://www.w3.org/2000/svg"
 width="355.000000pt" height="355.000000pt" viewBox="0 0 355.000000 355.000000"
 preserveAspectRatio="xMidYMid meet">
<metadata>
Created by potrace 1.14, written by Peter Selinger 2001-2017
</metadata>
<g transform="translate(0.000000,355.000000) scale(0.100000,-0.100000)"
fill="#000000" stroke="none">
<path d="M0 2578 l0 -533 149 2 c82 1 166 6 188 12 21 6 66 11 99 11 l62 0 5
-37 c10 -73 8 -870 -2 -897 -11 -28 -55 -45 -80 -29 -25 16 -29 52 -35 296 -4
128 -9 291 -12 363 l-6 130 -29 11 c-27 10 -29 15 -29 61 0 64 -16 70 -99 42
-33 -11 -77 -20 -98 -20 -21 0 -55 -3 -76 -6 l-37 -7 0 -763 0 -764 279 0
c214 0 281 3 284 13 4 9 6 9 6 0 1 -10 134 -13 631 -13 l630 0 0 22 c0 15 25
47 73 93 82 78 105 110 169 233 38 73 59 89 124 97 33 4 66 11 75 16 9 4 47
13 84 19 68 11 69 11 111 -19 l42 -31 12 63 c6 34 20 112 30 172 10 61 30 178
45 260 41 235 84 488 87 514 3 20 -4 26 -37 37 l-40 12 45 -1 c44 -2 45 -1 48
31 3 25 8 32 25 33 12 0 40 2 62 4 79 9 324 25 510 35 105 6 205 13 223 16
l32 6 0 524 0 524 -264 0 -263 0 7 -47 c9 -58 12 -846 3 -888 -5 -29 -6 -28
-19 20 -16 61 -18 260 -3 304 8 24 8 57 0 124 -18 150 -23 282 -13 319 11 41
-1 78 -26 78 -17 0 -18 -5 -11 -52 16 -113 7 -324 -13 -312 -5 3 -8 97 -7 211
2 192 3 206 22 224 20 19 18 19 -166 19 l-187 0 -2 -82 c-1 -52 -3 -64 -5 -33
-6 97 -12 117 -35 113 -26 -4 -35 -34 -44 -138 -7 -87 6 -114 52 -115 26 0 29
-3 29 -35 0 -35 0 -35 -55 -42 -30 -3 -92 -6 -137 -7 -84 -1 -105 10 -60 30
66 30 85 48 93 92 14 74 15 101 6 120 -5 12 -14 34 -20 49 -8 19 -22 30 -49
37 -26 7 -419 11 -1210 11 l-1173 0 0 -532z m375 412 c12 -19 27 -412 16 -423
-15 -15 -354 -13 -359 2 -7 22 19 39 73 46 47 5 57 11 70 34 14 28 46 41 101
41 28 0 26 -10 24 162 -1 70 1 132 5 138 8 13 62 13 70 0z m1551 -20 c62 -13
115 -36 181 -77 59 -37 89 -72 98 -113 4 -18 11 -27 19 -24 16 6 74 -58 93
-104 10 -24 12 -50 8 -84 -8 -55 -28 -71 -50 -42 -10 14 -14 15 -15 5 0 -12
-3 -11 -17 1 -14 12 -29 14 -73 8 -30 -5 -89 -10 -130 -11 l-75 -2 56 -6 c77
-8 101 -35 96 -108 -2 -29 -2 -53 0 -53 1 0 8 20 14 44 8 31 15 43 25 39 21
-8 32 -61 34 -163 0 -52 3 -110 6 -128 4 -18 2 -38 -3 -45 -5 -6 -15 -32 -22
-57 -7 -25 -23 -58 -34 -75 -19 -28 -19 -29 -1 -14 38 32 50 35 32 9 -27 -38
-59 -100 -52 -100 4 0 1 -6 -5 -13 -6 -8 -7 -17 -3 -21 4 -4 12 -21 18 -38
l10 -31 27 44 c34 58 79 109 96 109 7 0 26 11 42 25 16 13 36 22 43 19 14 -5
170 -321 182 -368 4 -17 2 -26 -6 -26 -18 0 -210 98 -247 126 -39 30 -39 30
-47 -1 -6 -23 -50 -55 -76 -55 -33 0 -203 -151 -216 -192 -3 -10 -11 -18 -17
-18 -15 0 -111 64 -147 97 -14 13 -31 23 -38 23 -7 0 -16 8 -19 18 -4 9 -14
22 -22 28 -13 10 -37 -10 -140 -112 -105 -104 -127 -122 -137 -110 -6 9 -14
57 -17 108 -4 51 -16 133 -27 182 -11 50 -20 105 -20 124 l0 35 -21 -28 c-18
-22 -27 -26 -51 -21 -34 7 -86 -17 -138 -63 -19 -17 -40 -31 -47 -31 -6 0 -13
-10 -15 -22 -3 -21 -38 -48 -90 -69 -16 -6 -28 -15 -28 -19 0 -4 -18 -15 -40
-24 -23 -9 -44 -24 -47 -34 -4 -9 -21 -32 -38 -51 -16 -18 -30 -41 -31 -50 -1
-24 -42 -111 -52 -111 -6 0 -10 -10 -10 -22 -1 -72 -35 -210 -73 -294 -12 -26
-26 -104 -39 -225 -11 -101 -25 -197 -30 -212 -5 -15 -7 -34 -4 -41 3 -7 -2
-16 -10 -19 -23 -9 -24 -20 24 273 10 63 31 187 45 275 26 162 39 224 55 260
61 138 93 199 125 233 39 44 146 126 205 158 19 10 51 31 70 45 19 15 76 47
125 72 118 60 129 70 163 147 46 104 56 139 42 155 -7 9 -9 26 -5 45 5 22 2
37 -10 49 -12 14 -14 30 -10 64 4 27 2 48 -4 51 -6 4 -8 12 -5 20 6 16 -8 74
-34 143 -11 29 -18 63 -15 75 4 18 2 20 -6 8 -5 -8 -13 -11 -17 -7 -4 3 -1 13
5 21 7 8 10 24 6 35 -4 15 4 32 33 63 22 24 65 84 95 135 59 97 122 163 166
175 34 9 226 1 287 -12z m1042 -610 c0 -160 -5 -184 -39 -188 -39 -5 -63 57
-57 142 3 36 3 67 1 70 -3 3 -6 26 -7 50 -1 48 -1 48 67 70 12 4 17 17 18 48
3 94 17 -65 17 -192z m-728 110 c0 -12 -17 -12 -45 0 -17 7 -15 9 13 9 17 1
32 -3 32 -9z m58 -2 c11 -14 -10 -42 -23 -30 -4 4 -4 -5 0 -21 6 -21 4 -27 -9
-27 -18 0 -21 26 -6 64 10 29 22 33 38 14z m342 5 c0 -21 -51 -35 -144 -40
-57 -4 -104 -11 -108 -17 -4 -6 -8 -23 -8 -38 0 -16 -4 -28 -9 -28 -10 0 -22
94 -15 114 4 10 39 14 145 15 76 1 139 -1 139 -6z m-281 -155 c1 -15 -8 -42
-19 -60 -26 -43 -26 -72 0 -33 18 28 20 28 20 7 0 -27 -60 -122 -78 -122 -7 0
-15 7 -18 15 -9 23 5 65 21 65 10 0 15 11 15 34 0 18 7 39 15 46 9 7 15 29 15
50 0 21 3 47 7 57 6 16 8 15 14 -7 4 -14 7 -37 8 -52z m-49 -8 c0 -5 -4 -10
-10 -10 -5 0 -10 5 -10 10 0 6 5 10 10 10 6 0 10 -4 10 -10z m50 -310 c0 -5
-9 -10 -19 -10 -11 0 -23 5 -26 10 -4 6 5 10 19 10 14 0 26 -4 26 -10z m110
-20 c12 -7 8 -10 -15 -10 -16 0 -37 5 -45 10 -12 7 -8 10 15 10 17 0 37 -5 45
-10z m115 -31 l20 -8 -20 0 c-11 0 -38 7 -60 14 l-40 14 40 -6 c22 -3 49 -9
60 -14z"/>
<path d="M2140 2565 c0 -8 5 -15 10 -15 6 0 10 7 10 15 0 8 -4 15 -10 15 -5 0
-10 -7 -10 -15z"/>
<path d="M1462 2503 c-35 -7 -36 -23 -3 -94 l29 -64 -5 45 c-5 37 -3 43 8 33
19 -18 24 -16 37 12 16 36 15 38 -13 33 -38 -8 -31 20 8 31 l32 9 -35 0 c-19
-1 -45 -3 -58 -5z m8 -23 c0 -5 -4 -10 -10 -10 -5 0 -10 5 -10 10 0 6 5 10 10
10 6 0 10 -4 10 -10z"/>
<path d="M1697 2494 c56 -24 68 -74 33 -132 -11 -18 -35 -39 -53 -47 -17 -8
-24 -14 -15 -15 27 0 76 48 97 96 25 56 54 60 71 9 11 -33 74 -94 86 -83 2 3
-6 12 -19 21 -13 8 -30 30 -37 48 -12 28 -12 33 3 44 21 15 22 25 1 25 -9 0
-14 6 -11 13 6 16 -32 20 -50 5 -9 -7 -17 -7 -28 2 -8 6 -18 9 -24 6 -5 -3
-22 1 -37 9 -16 8 -33 15 -39 14 -5 0 4 -7 22 -15z"/>
<path d="M1990 2320 l-65 -7 77 -1 c42 -1 80 2 83 8 3 6 -2 9 -12 8 -10 -1
-47 -4 -83 -8z"/>
<path d="M1555 2300 c3 -5 16 -10 28 -9 21 0 21 1 2 9 -28 12 -37 12 -30 0z"/>
<path d="M1925 2250 c-3 -5 -1 -10 4 -10 6 0 11 5 11 10 0 6 -2 10 -4 10 -3 0
-8 -4 -11 -10z"/>
<path d="M1846 2231 c-3 -4 6 -6 19 -3 14 2 25 6 25 8 0 8 -39 4 -44 -5z"/>
<path d="M1949 2106 c-2 -2 -21 -6 -42 -9 -55 -7 -58 -17 -6 -17 46 1 116 29
73 30 -11 0 -23 -2 -25 -4z"/>
<path d="M1754 2078 c-3 -5 13 -8 35 -8 23 0 41 4 41 9 0 11 -70 10 -76 -1z"/>
<path d="M1995 1874 c-36 -29 -124 -57 -157 -49 -12 3 -36 1 -53 -4 -29 -9
-29 -9 13 -10 35 -1 42 -4 42 -21 0 -24 42 -27 80 -5 14 8 35 14 47 15 15 0
27 13 43 46 12 25 21 47 19 49 -2 2 -17 -8 -34 -21z"/>
<path d="M3521 778 c-12 -79 -27 -164 -32 -189 l-10 -46 -52 -4 c-77 -6 -787
-1 -824 6 -18 3 -39 13 -48 21 -18 18 -20 91 -3 96 6 2 1 14 -15 30 l-25 26 1
-64 c0 -37 -4 -69 -11 -76 -7 -7 -12 -25 -12 -40 0 -15 -4 -28 -10 -28 -5 0
-10 -8 -10 -18 0 -10 -5 -23 -12 -30 -9 -9 111 -12 540 -12 l552 0 0 235 c0
129 -2 235 -4 235 -1 0 -13 -64 -25 -142z"/>
<path d="M2722 880 c0 -14 2 -19 5 -12 2 6 2 18 0 25 -3 6 -5 1 -5 -13z"/>
<path d="M3011 892 c-1 -7 6 -20 14 -28 13 -14 15 -12 15 13 0 20 -3 24 -9 14
-7 -11 -9 -11 -14 0 -4 11 -6 11 -6 1z"/>
<path d="M3111 884 c0 -11 3 -14 6 -6 3 7 2 16 -1 19 -3 4 -6 -2 -5 -13z"/>
<path d="M3291 884 c0 -11 3 -14 6 -6 3 7 2 16 -1 19 -3 4 -6 -2 -5 -13z"/>
<path d="M3322 878 c2 -16 6 -24 11 -19 5 5 5 17 -2 28 -9 16 -10 15 -9 -9z"/>
<path d="M3360 873 c0 -21 3 -24 9 -14 5 8 7 20 4 28 -8 21 -13 15 -13 -14z"/>
<path d="M3402 870 c0 -14 2 -19 5 -12 2 6 2 18 0 25 -3 6 -5 1 -5 -13z"/>
<path d="M2911 864 c0 -11 3 -14 6 -6 3 7 2 16 -1 19 -3 4 -6 -2 -5 -13z"/>
<path d="M3063 866 c1 -11 9 -21 17 -23 10 -3 11 -2 4 4 -6 4 -14 15 -17 23
-5 11 -6 9 -4 -4z"/>
<path d="M3170 865 c7 -9 15 -13 17 -11 7 7 -7 26 -19 26 -6 0 -6 -6 2 -15z"/>
<path d="M2970 860 c0 -5 5 -10 10 -10 6 0 10 5 10 10 0 6 -4 10 -10 10 -5 0
-10 -4 -10 -10z"/>
<path d="M2570 785 c0 -11 5 -27 10 -35 8 -12 10 -12 10 5 0 11 -5 27 -10 35
-8 12 -10 12 -10 -5z"/>
</g>
</svg>
