<?xml version="1.0" standalone="no"?>
<!DOCTYPE svg PUBLIC "-//W3C//DTD SVG 20010904//EN"
 "http://www.w3.org/TR/2001/REC-SVG-20010904/DTD/svg10.dtd">
<svg version="1.0" xmlns="http://www.w3.org/2000/svg"
 width="225.000000pt" height="225.000000pt" viewBox="0 0 225.000000 225.000000"
 preserveAspectRatio="xMidYMid meet">
<metadata>
Created by potrace 1.14, written by Peter Selinger 2001-2017
</metadata>
<g transform="translate(0.000000,225.000000) scale(0.100000,-0.100000)"
fill="#000000" stroke="none">
<path d="M1019 2235 c-3 -3 -30 -7 -60 -10 -51 -4 -94 -11 -94 -15 0 -1 -9 -3
-20 -4 -34 -5 -147 -47 -210 -79 -73 -36 -195 -116 -195 -128 0 -5 -3 -8 -7
-7 -13 5 -128 -103 -173 -162 -14 -18 -35 -44 -47 -59 -13 -14 -23 -31 -23
-38 0 -7 -8 -17 -17 -22 -10 -6 -14 -11 -10 -11 4 0 -4 -17 -18 -37 -14 -21
-25 -42 -25 -47 0 -5 -6 -17 -14 -25 -12 -15 -48 -122 -77 -231 -15 -55 -20
-360 -6 -360 5 0 5 -6 -2 -13 -6 -8 -8 -16 -5 -19 3 -4 8 -21 11 -40 7 -42 11
-63 13 -63 1 0 4 -13 6 -30 3 -16 10 -35 15 -41 5 -7 9 -16 8 -20 -1 -5 4 -22
11 -39 7 -16 14 -34 15 -40 6 -29 18 -55 27 -55 5 0 6 -4 3 -10 -3 -5 -1 -10
4 -10 6 0 11 -6 11 -13 0 -14 78 -133 119 -181 40 -48 181 -189 181 -182 0 3
9 -2 19 -11 38 -35 59 -47 179 -110 45 -24 90 -45 100 -47 9 -1 25 -6 35 -11
9 -4 24 -4 33 -1 8 3 12 2 9 -4 -6 -9 2 -12 75 -25 19 -4 49 -9 65 -12 17 -3
47 -6 68 -7 20 0 37 -4 37 -8 0 -5 9 -4 19 2 11 5 22 6 25 2 6 -10 46 -10 63
1 6 4 14 3 18 -3 4 -6 11 -7 17 -4 10 7 28 10 103 19 17 2 32 4 35 6 3 1 10 3
15 4 6 2 12 4 15 5 7 2 31 8 63 15 57 12 207 75 207 88 0 4 4 6 9 2 5 -3 15 1
23 8 7 7 25 18 41 24 15 7 27 17 27 23 0 6 4 9 8 6 5 -3 21 6 38 19 16 14 36
30 44 37 27 22 109 98 105 98 -2 0 11 15 28 33 56 60 95 106 91 110 -3 2 2 10
11 17 8 7 15 19 15 26 0 8 4 14 8 14 7 0 46 71 52 95 1 6 10 26 20 45 18 35
49 144 55 190 2 14 4 25 5 25 4 0 9 45 12 97 2 27 7 48 12 48 5 0 3 7 -4 15
-7 8 -8 15 -3 15 11 0 10 70 -1 88 -3 6 -2 13 4 17 6 4 7 12 3 18 -4 7 -8 28
-9 47 -1 19 -9 66 -19 103 -9 37 -18 74 -19 82 -1 8 -5 18 -9 21 -4 4 -7 14
-7 23 0 9 -6 28 -14 43 -8 14 -19 42 -26 62 -6 20 -16 36 -21 36 -5 0 -9 9 -9
20 0 11 -3 20 -8 20 -4 0 -13 13 -20 28 -6 16 -21 38 -32 50 -11 12 -20 24
-20 26 0 13 -68 94 -74 89 -3 -4 -6 -2 -6 3 0 14 -65 84 -77 84 -6 0 -19 11
-29 25 -10 14 -23 25 -27 25 -5 0 -22 14 -39 30 -16 17 -34 28 -39 24 -5 -3
-9 0 -9 6 0 6 -4 8 -10 5 -5 -3 -10 -2 -10 3 0 5 -21 20 -47 33 -27 13 -51 28
-55 34 -4 5 -8 6 -8 1 0 -4 -11 -1 -23 7 -13 8 -32 17 -43 19 -10 2 -21 6 -24
10 -3 4 -15 9 -25 11 -11 2 -27 7 -35 10 -13 5 -47 14 -85 22 -5 2 -27 6 -49
9 -21 3 -42 9 -47 12 -5 3 -9 0 -9 -6 0 -6 -5 -8 -11 -4 -17 10 -170 12 -196
3 -13 -5 -23 -4 -25 2 -2 6 -6 8 -9 4z"/>
</g>
</svg>
